<?xml version="1.0" encoding="UTF-8" standalone="no"?>
<!DOCTYPE svg  PUBLIC '-//W3C//DTD SVG 1.1//EN'  'http://www.w3.org/Graphics/SVG/1.1/DTD/svg11.dtd'>
<svg style="background-color:none" xmlns="http://www.w3.org/2000/svg" height="542pt" width="542pt" version="1.1" viewBox="0 0 542 542">
 <path d="m0 0h542v542h-542v-542z" fill="none"/>
 <path d="m243.96 43.95c4.11-2.69 9.2-2.12 13.85-1.78 7.49 1.63 14.09 7.43 16.15 14.9 2.39 6.14 0.54 13.15-2.88 18.52-1.16 1.63-2.39 3.22-3.72 4.72-7.68 5.48-18.93 6.9-26.64 0.69-1.78-1.8-3.51-3.67-5.17-5.59-4.44-4.92-4-11.95-3.21-18.06 1.89-5.77 5.88-11.03 11.62-13.4z" fill="#6ea846"/>
 <path d="m235.55 75.41c1.66 1.92 3.39 3.79 5.17 5.59-3.35 4.2-7.42 7.75-11.4 11.33-42.88 39.4-85.37 79.22-127.62 119.29-1.4 1.26-2.88 2.41-4.36 3.58-0.73-0.77-1.46-1.54-2.18-2.31-0.81-0.86-1.61-1.74-2.4-2.63 47.6-44.95 95.33-89.76 142.79-134.85z" fill="#ccc"/>
 <path d="m267.36 80.31c1.33-1.5 2.56-3.09 3.72-4.72 4.47 2.17 8.68 4.82 12.99 7.29 35.59 20.76 71.18 41.5 106.77 62.25 4.31 2.51 8.68 4.93 12.86 7.68-0.99 1.7-1.97 3.4-2.92 5.12-0.52 0.1-1.56 0.3-2.08 0.41-1.2-0.86-2.41-1.7-3.66-2.47-38.33-22.31-76.62-44.67-114.95-66.97-4.34-2.71-9.47-4.44-12.73-8.59z" fill="#ccc"/>
 <path d="m240.72 81c7.71 6.21 18.96 4.79 26.64-0.69 3.26 4.15 8.39 5.88 12.73 8.59 38.33 22.3 76.62 44.66 114.95 66.97 1.25 0.77 2.46 1.61 3.66 2.47-94.68 17.2-189.42 34.15-284.12 51.25-4.25 0.9-8.54 1.66-12.88 2.03 42.25-40.07 84.74-79.89 127.62-119.29 3.98-3.58 8.05-7.13 11.4-11.33z" fill="none"/>
 <path d="m430.58 152.6c8.26-1.83 16.8-2.24 25.22-1.38 11.57 2.36 22.26 9.26 29.03 18.95 3.34 5.74 6.74 11.71 7.62 18.41 11.56 63.82 22.84 127.7 34.42 191.51 0.17 5.91 0.75 12-1.03 17.73-3.82 15.33-16.13 28.14-31.18 32.85-8.72 2.6-17.84 3.47-26.74 5.25-120.9 21.72-241.77 43.59-362.67 65.32-8.13 1.87-16.58 2.35-24.87 1.39-11.42-2.67-22.58-8.93-28.98-19.04-7.39-9.62-8.34-22.08-10.4-33.59-9.8-54.24-19.43-108.51-29.24-162.75-1.34-8.33-3.59-16.66-2.65-25.16 1.3-8.14 4.29-16.1 9.3-22.69 6.29-7.7 14.51-14.29 24.36-16.61 17.35-3.87 35.01-6.17 52.39-9.9 0.72 0.77 1.45 1.54 2.18 2.31 1.48-1.17 2.96-2.32 4.36-3.58 4.34-0.37 8.63-1.13 12.88-2.03 94.7-17.1 189.44-34.05 284.12-51.25 0.52-0.11 1.56-0.31 2.08-0.41 9.98-1.48 19.86-3.56 29.8-5.33z" fill="#6ea846"/>
 <path d="m344.13 212.18c9.3-1.05 18.48-3.66 27.9-3.21 10.16 0.38 20.38 4.08 27.66 11.33 3.48 4.36 7.08 8.87 8.72 14.3 2.83 7.47 3.94 15.46 4.63 23.37-0.21 7.38-1.06 15.01-4.36 21.72-2.31 4.75-6.1 8.53-9.98 12.02-5.89 4.96-13.4 7.25-20.68 9.3-8.7 2.07-17.6 3.18-26.42 4.61-2.42 0.42-4.91 0.57-7.35 0.28-2.23-2.44-2.51-5.92-3.14-9.01-3.45-22.46-7.33-44.85-10.69-67.31-0.8-4.49-1.68-8.98-1.5-13.56 4.63-2.66 10.05-3 15.21-3.84z" fill="#fefefe"/>
 <path d="m297.59 218.57c4.45-0.74 8.89-1.73 13.43-1.69 1.48 3.59 2.36 7.4 2.92 11.24 0.34 2.07-0.66 4.29-2.26 5.58-10.96 1.67-21.94 3.33-32.81 5.39 1.33 6.65 2.44 13.35 3.38 20.07 9.97-1.03 19.73-3.9 29.77-4.28 1.66 5.06 4.23 10.76 1.87 16-9.63 2.06-19.45 3.08-29.09 5.03 1.5 7.19 2.74 14.45 3.48 21.76 0.55 1.18 1.47 1.63 2.77 1.35 11.05-0.86 21.83-4.48 32.98-4.06 2.65 4.91 1.96 10.54 1.95 15.9-16.04 2.88-32.22 4.93-48.25 7.93-2.24 0.47-4.41-0.52-6.57-0.94-1.4-3.39-2.23-6.95-2.48-10.6-2.86-17.16-5.43-34.36-8.38-51.51-0.96-9.57-4-18.93-3.31-28.62 1.61-1.14 3.18-2.58 5.19-2.91 11.83-1.7 23.56-4.05 35.41-5.64z" fill="#fefefe"/>
 <path d="m348.84 226.22c6.09-0.31 12.03-2.04 18.13-2.23 6.5 0.87 13.6 2.8 17.77 8.28 7.82 9.55 9.14 22.64 8.06 34.52-1.12 7.06-5.24 13.99-11.82 17.18-6.83 3.15-14.36 4.31-21.76 5.18-3.97-20.89-6.68-42-10.38-62.93z" fill="#6ea846"/>
 <path d="m191.74 236.74c15.44-2.57 30.95-4.86 46.39-7.5 3.34 3.84 2.97 9.1 2.92 13.84-2.62 0.87-5.31 1.58-8.04 1.96-8.73 1.29-17.39 3.03-26.13 4.19 0.63 7.68 2.22 15.25 3.35 22.87 9.89-1.58 19.72-4.25 29.79-4.16 2.16 4.07 2.16 8.68 2.03 13.17-9.55 2.59-19.5 3.09-29.17 5.13 0.83 8.72 2.15 17.44 4.06 26 11.62-1.64 23.18-3.73 34.8-5.39 1.19 3.26 2.58 6.59 2.34 10.15-0.2 1.63 0.57 3.96-1.44 4.69-12.12 1.61-24.16 3.74-36.22 5.73-4.73 0.85-9.47 1.83-14.31 1.65-1.68-2.05-2.75-4.52-3.03-7.16-3.98-26.2-8.49-52.32-12.53-78.52-0.94-3.22 1.95-6.54 5.19-6.65z" fill="#fefefe"/>
 <path d="m161.57 241.54c2.43-0.5 4.92-0.57 7.39-0.65 2.28 4.53 4.29 10.01 1.96 14.93-9.91 1.2-19.66 3.52-29.61 4.48-0.33 0.25-0.99 0.74-1.32 0.98 0.95 8.2 2.51 16.34 3.66 24.51 10.01-1.73 20.02-3.55 30.08-4.94 2.09 4.45 2.62 9.32 2.31 14.19-9.64 3.56-20.2 3.17-30.1 5.79 2.61 11.59 3.48 23.5 6.04 35.1-4.92 4.36-11.85 4.23-18.02 4.1-2.14-4.39-2.02-9.34-2.95-14.03-4.22-24.32-7.56-48.77-11.92-73.07-0.38-3.22 2.79-4.84 5.5-5.31 12.27-2.34 24.69-3.85 36.98-6.08z" fill="#fefefe"/>
 <path d="m433.43 320.35c2.29-0.72 4.57 0.08 6.75 0.8 0.21 4.92-2.9 8.92-4.84 13.19-5.54 10.86-11.79 21.35-17.16 32.3 3.18 3.23 5.65 7.1 9.07 10.12 4.27 3.76 7.23 8.73 11.5 12.5 4.63 4.07 7.87 9.42 12.52 13.48 2.45 2.02 3.94 4.94 3.99 8.14-5.68 3.28-12.5 3.7-18.86 2.86-4.57-3.51-7.36-8.71-11.65-12.5-4.75-5.25-9.3-10.68-14.01-15.98-3.9-3.61-6.55-8.38-10.85-11.58 2.4 14.71 4.47 29.49 7.22 44.14-4.94 4.4-12.01 4.14-18.21 4.25-2.35-8.32-2.82-17.02-4.47-25.49-3.55-21.75-6.94-43.53-10.57-65.27 5.64-2.82 12.01-3.6 18.24-3.38 3.26 13.65 4.3 27.73 7.26 41.45 3.87-10.11 9.72-19.3 13.69-29.36 2.73-5.57 5.4-11.18 8.34-16.64 3.62-2.14 8.02-2.12 12.04-3.03z" fill="#fefefe"/>
 <path d="m324.69 337.69c7.6-3.16 16.03-3.03 24.09-2.47 4.43 1.04 10.62 1.75 12.14 6.84 1.11 4.28 3.02 8.94 0.88 13.23-2.41-0.31-4.68-1.17-6.83-2.25-7.29-3.41-16.02-4.12-23.35-0.44-7.41 3.09-11.27 11.06-12.4 18.61-1.22 11.82 0.88 24.21 7.19 34.39 3.93 5.78 10.73 8.94 17.58 9.39 5.34-0.54 10.68-1.91 15.35-4.64 3.86-2.04 6.88-5.27 10.56-7.59 2.27 4.29 3.65 9.21 3.02 14.09-0.45 2.51-2.4 4.31-4.48 5.59-8.97 6.62-20.43 9.31-31.46 8.59-12.48 0.41-23.79-7.61-29.95-18.05-6.17-10.85-8.67-23.58-8.05-35.98-0.62-13.04 5.46-26.25 16-34.02 3.01-2.13 6.35-3.77 9.71-5.29z" fill="#fefefe"/>
 <path d="m237.02 352.03c5.29-0.82 10.55-2.32 15.94-2.05 2.21-0.25 3.49 1.88 4.65 3.41 13.18 24.78 26.63 49.41 39.85 74.17 1.73 2.57 2.83 5.48 3.8 8.41-6.04 2.54-12.64 3.38-19.15 3.05-4.25-5.93-6.66-12.91-10.29-19.19-11.58 1.66-23.1 3.73-34.69 5.38-1.6 6.45-2.02 13.1-3.28 19.62-0.24 1.8-1.99 2.97-3.66 3.34-3.63 0.94-7.35 1.89-11.13 1.87-1.27 0.17-2.25-0.28-2.93-1.34-0.45-3-0.05-6.03 0.55-8.97 5-27.77 9.85-55.56 14.73-83.35 0.38-2.8 3.11-4.05 5.61-4.35z" fill="#fefefe"/>
 <path d="m139.96 367.91c13.53-1.32 27.58-6.95 40.94-1.8 7.33 2.24 12.31 9.52 13.01 16.97 0.25 4.62 0.69 9.73-2.06 13.76-1.72 2.98-4.38 5.22-7.12 7.22 5.3 1.18 10.97 2.21 14.97 6.24 6.91 7.94 9.24 20.07 4.17 29.56-2.37 5.72-7.82 9.07-12.92 12.07-9.8 4.9-20.94 5.49-31.54 7.49-5.07 0.7-10.36 2.76-15.34 0.52-3.46-14.61-4.94-29.6-7.63-44.35-1.84-13.89-4.83-27.62-6.46-41.53-0.07-5.16 6.11-5.69 9.98-6.15z" fill="#fefefe"/>
 <path d="m245.37 369.61c5.89 8.55 9.73 18.26 14.71 27.33 1.81 2.92 3.42 5.96 4.97 9.02-8.64 1.87-17.42 3.15-26.2 4.18 1.95-13.53 4.36-27.02 6.52-40.53z" fill="#6ea846"/>
 <path d="m149.86 380.16c6.27-0.13 12.53-2.14 18.8-0.86 5.63 2.3 8.89 9.39 6.79 15.15-0.77 3.12-3.41 5.29-5.84 7.18-5.07 2.01-10.62 2.1-15.92 3.11-1.68-8.12-2.98-16.34-3.83-24.58z" fill="#6ea846"/>
 <path d="m155.88 418.23c7.87-0.58 16.08-4.27 23.78-0.9 5.44 1.98 7.64 8.32 7.41 13.67 0.19 3.7-2.67 6.6-5.44 8.64-6.44 4.08-14.44 3.22-21.59 5.05-1.49-8.8-3.4-17.56-4.16-26.46z" fill="#6ea846"/>
</svg>
