<?xml version="1.0" encoding="utf-8"?>
<!DOCTYPE svg PUBLIC "-//W3C//DTD SVG 1.1//EN" "http://www.w3.org/Graphics/SVG/1.1/DTD/svg11.dtd">

<svg version="1.1" xmlns="http://www.w3.org/2000/svg" xmlns:xlink="http://www.w3.org/1999/xlink" width="176" height="32" viewBox="0 0 176 32">
<defs>
<g id="icon-fb">

<path  d="M243.196,0C108.891,0,0,108.891,0,243.196s108.891,243.196,243.196,243.196
				s243.196-108.891,243.196-243.196C486.392,108.861,377.501,0,243.196,0z M306.062,243.165l-39.854,0.03l-0.03,145.917h-54.689
				V243.196H175.01v-50.281l36.479-0.03l-0.061-29.609c0-41.039,11.126-65.997,59.431-65.997h40.249v50.311h-25.171
				c-18.817,0-19.729,7.022-19.729,20.124l-0.061,25.171h45.234L306.062,243.165z" />
</g>
<g id="icon-gp">
  <path d="M296.069,247.387c0-31.295-18.694-80.033-54.802-80.033c-11.294,0-23.479,5.647-30.461,14.382
			c-7.399,9.124-9.569,20.863-9.569,32.186c0,29.125,16.969,77.418,54.384,77.418c10.877,0,22.616-5.23,29.599-12.185
			C295.207,269.113,296.069,255.204,296.069,247.387z" />
  <path d="M612,306C612,137.004,474.995,0,306,0C137.004,0,0,137.004,0,306c0,168.995,137.004,306,306,306
			C474.995,612,612,474.995,612,306z M400.164,247.165h23.535v47.068h47.068v23.535h-47.068v47.068h-23.535v-47.068h-47.068v-23.535
			h47.068V247.165z M141.233,422.252c0-15.661,7.817-37.832,33.493-53.077c26.956-16.523,63.509-18.693,83.065-20.001
			c-6.092-7.845-13.047-16.106-13.047-29.57c0-7.4,2.17-11.739,4.34-16.97c-4.785,0.417-9.569,0.863-13.937,0.863
			c-46.095,0-72.188-34.383-72.188-68.294c0-20.001,9.125-42.2,27.846-58.279C215.619,156.478,245.189,153,268.668,153h89.603
			l-27.846,15.634h-26.956l0,0c9.986,8.262,30.878,25.676,30.878,58.724c0,32.186-18.276,47.402-36.525,61.756
			c-5.647,5.647-12.184,11.739-12.184,21.309s6.537,14.8,11.294,18.694l15.662,12.184c19.139,16.079,36.525,30.879,36.525,60.922
			c0,40.865-39.585,82.203-114.388,82.203C171.694,484.454,141.233,454.438,141.233,422.252z" />
  <path d="M272.59,361.775c-3.477-0.417-5.647-0.417-9.987-0.417c-3.922,0-27.401,0.862-45.677,6.982
			c-9.569,3.477-37.416,13.909-37.416,44.787s30.016,53.049,76.556,53.049c41.755,0,63.926-20.001,63.926-46.957
			C319.992,397.021,305.666,385.282,272.59,361.775z" />
</g>
<g id="icon-ln">
  <path  d="M243.196,0C108.891,0,0,108.891,0,243.196s108.891,243.196,243.196,243.196
				s243.196-108.891,243.196-243.196C486.392,108.861,377.501,0,243.196,0z M182.397,360.994h-60.799V148.197h60.799V360.994z
				 M153.882,135.156c-15.747,0-28.484-12.768-28.484-28.515s12.768-28.515,28.484-28.515c15.747,0.03,28.515,12.798,28.515,28.515
				C182.397,122.388,169.629,135.156,153.882,135.156z M395.193,360.994h-60.799V229.425c0-15.413-4.408-26.204-23.347-26.204
				c-31.403,0-37.452,26.204-37.452,26.204v131.569h-60.799V148.197h60.799v20.337c8.694-6.657,30.399-20.307,60.799-20.307
				c19.699,0,60.799,11.795,60.799,83.051V360.994z" />
</g>
<g id="icon-tw">
  <path d="M24.826,0C11.137,0,0,11.137,0,24.826c0,13.688,11.137,24.826,24.826,24.826c13.688,0,24.826-11.138,24.826-24.826
			C49.652,11.137,38.516,0,24.826,0z M35.901,19.144c0.011,0.246,0.017,0.494,0.017,0.742c0,7.551-5.746,16.255-16.259,16.255
			c-3.227,0-6.231-0.943-8.759-2.565c0.447,0.053,0.902,0.08,1.363,0.08c2.678,0,5.141-0.914,7.097-2.446
			c-2.5-0.046-4.611-1.698-5.338-3.969c0.348,0.066,0.707,0.103,1.074,0.103c0.521,0,1.027-0.068,1.506-0.199
			c-2.614-0.524-4.583-2.833-4.583-5.603c0-0.024,0-0.049,0.001-0.072c0.77,0.427,1.651,0.685,2.587,0.714
			c-1.532-1.023-2.541-2.773-2.541-4.755c0-1.048,0.281-2.03,0.773-2.874c2.817,3.458,7.029,5.732,11.777,5.972
			c-0.098-0.419-0.147-0.854-0.147-1.303c0-3.155,2.558-5.714,5.713-5.714c1.644,0,3.127,0.694,4.171,1.804
			c1.303-0.256,2.523-0.73,3.63-1.387c-0.43,1.335-1.333,2.454-2.516,3.162c1.157-0.138,2.261-0.444,3.282-0.899
			C37.987,17.334,37.018,18.341,35.901,19.144z" />
</g>
</defs>
</svg>
